{
	"asset":{
		"generator":"Khronos glTF Blender I/O v4.2.70",
		"version":"2.0"
	},
	"extensionsUsed":[
		"KHR_materials_specular",
		"KHR_materials_ior"
	],
	"scene":0,
	"scenes":[
		{
			"name":"Scene",
			"nodes":[
				0
			]
		}
	],
	"nodes":[
		{
			"mesh":0,
			"name":"Mobius48b",
			"rotation":[
				0.7071068286895752,
				0,
				0,
				0.7071068286895752
			]
		}
	],
	"materials":[
		{
			"alphaMode":"MASK",
			"doubleSided":true,
			"extensions":{
				"KHR_materials_specular":{
					"specularFactor":0.4000000059604645
				},
				"KHR_materials_ior":{
					"ior":2.5
				}
			},
			"name":"Cor12",
			"pbrMetallicRoughness":{
				"baseColorFactor":[
					1,
					1,
					1,
					1
				],
				"baseColorTexture":{
					"index":0
				},
				"metallicFactor":0.27,
				"roughnessFactor":0.7
			}
		}
	],
	"meshes":[
		{
			"name":"Mobius48b",
			"primitives":[
				{
					"attributes":{
						"POSITION":0,
						"NORMAL":1,
						"TEXCOORD_0":2
					},
					"indices":3,
					"material":0
				}
			]
		}
	],
	"textures":[
		{
			"sampler":0,
			"source":0
		}
	],
	"images":[
		{
			"mimeType":"image/png",
			"name":"1Hexagonal-Tessellation-Design",
			"uri":"1Hexagonal-Tessellation-Design.png"
		}
	],
	"accessors":[
		{
			"bufferView":0,
			"componentType":5126,
			"count":26,
			"max":[
				1.0804879665374756,
				1.0804870128631592,
				1.0804870128631592
			],
			"min":[
				-1.0804879665374756,
				-1.0804870128631592,
				-1.0804870128631592
			],
			"type":"VEC3"
		},
		{
			"bufferView":1,
			"componentType":5126,
			"count":26,
			"type":"VEC3"
		},
		{
			"bufferView":2,
			"componentType":5126,
			"count":26,
			"type":"VEC2"
		},
		{
			"bufferView":3,
			"componentType":5123,
			"count":144,
			"type":"SCALAR"
		}
	],
	"bufferViews":[
		{
			"buffer":0,
			"byteLength":312,
			"byteOffset":0,
			"target":34962
		},
		{
			"buffer":0,
			"byteLength":312,
			"byteOffset":312,
			"target":34962
		},
		{
			"buffer":0,
			"byteLength":208,
			"byteOffset":624,
			"target":34962
		},
		{
			"buffer":0,
			"byteLength":288,
			"byteOffset":832,
			"target":34963
		}
	],
	"samplers":[
		{
			"magFilter":9729,
			"minFilter":9987
		}
	],
	"buffers":[
		{
			"byteLength":1120,
			"uri":"Mobius48b.bin"
		}
	]
}
