{
	"asset":{
		"generator":"Khronos glTF Blender I/O v4.2.70",
		"version":"2.0"
	},
	"extensionsUsed":[
		"KHR_materials_specular",
		"KHR_materials_ior"
	],
	"scene":0,
	"scenes":[
		{
			"name":"Scene",
			"nodes":[
				0
			]
		}
	],
	"nodes":[
		{
			"mesh":0,
			"name":"TruncatedIcosahedron",
			"rotation":[
				0.7071068286895752,
				0,
				0,
				0.7071068286895752
			]
		}
	],
	"materials":[
		{
			"alphaMode":"MASK",
			"doubleSided":true,
			"extensions":{
				"KHR_materials_specular":{
					"specularFactor":0.4000000059604645
				},
				"KHR_materials_ior":{
					"ior":2.5
				}
			},
			"name":"Cor12",
			"pbrMetallicRoughness":{
				"baseColorFactor":[
					1,
					1,
					1,
					1
				],
				"baseColorTexture":{
					"index":0
				},
				"metallicFactor":0.27,
				"roughnessFactor":0.7
			}
		},
		{
			"alphaMode":"MASK",
			"doubleSided":true,
			"extensions":{
				"KHR_materials_specular":{
					"specularFactor":0.4000000059604645
				},
				"KHR_materials_ior":{
					"ior":2.5
				}
			},
			"name":"Cor12",
			"pbrMetallicRoughness":{
				"baseColorFactor":[
					1,
					1,
					1,
					1
				],
				"baseColorTexture":{
					"index":1
				},
				"metallicFactor":0.27,
				"roughnessFactor":0.7
			}
		}
	],
	"meshes":[
		{
			"name":"TruncatedIcosahedron",
			"primitives":[
				{
					"attributes":{
						"POSITION":0,
						"NORMAL":1,
						"TEXCOORD_0":2
					},
					"indices":3,
					"material":0
				},
				{
					"attributes":{
						"POSITION":4,
						"NORMAL":5,
						"TEXCOORD_0":6
					},
					"indices":7,
					"material":1
				}
			]
		}
	],
	"textures":[
		{
			"sampler":0,
			"source":0
		},
		{
			"sampler":0,
			"source":1
		}
	],
	"images":[
		{
			"mimeType":"image/png",
			"name":"Escher_Snakes",
			"uri":"Escher_Snakes.png"
		},
		{
			"mimeType":"image/png",
			"name":"e3",
			"uri":"Escher_Snakes.png"
		}
	],
	"accessors":[
		{
			"bufferView":0,
			"componentType":5126,
			"count":112,
			"max":[
				2.427051067352295,
				2.427051067352295,
				2.427051067352295
			],
			"min":[
				-2.427051067352295,
				-2.427051067352295,
				-2.427051067352295
			],
			"type":"VEC3"
		},
		{
			"bufferView":1,
			"componentType":5126,
			"count":112,
			"type":"VEC3"
		},
		{
			"bufferView":2,
			"componentType":5126,
			"count":112,
			"type":"VEC2"
		},
		{
			"bufferView":3,
			"componentType":5123,
			"count":240,
			"type":"SCALAR"
		},
		{
			"bufferView":4,
			"componentType":5126,
			"count":60,
			"max":[
				2.427051067352295,
				2.427051067352295,
				2.427051067352295
			],
			"min":[
				-2.427051067352295,
				-2.427051067352295,
				-2.427051067352295
			],
			"type":"VEC3"
		},
		{
			"bufferView":5,
			"componentType":5126,
			"count":60,
			"type":"VEC3"
		},
		{
			"bufferView":6,
			"componentType":5126,
			"count":60,
			"type":"VEC2"
		},
		{
			"bufferView":7,
			"componentType":5123,
			"count":108,
			"type":"SCALAR"
		}
	],
	"bufferViews":[
		{
			"buffer":0,
			"byteLength":1344,
			"byteOffset":0,
			"target":34962
		},
		{
			"buffer":0,
			"byteLength":1344,
			"byteOffset":1344,
			"target":34962
		},
		{
			"buffer":0,
			"byteLength":896,
			"byteOffset":2688,
			"target":34962
		},
		{
			"buffer":0,
			"byteLength":480,
			"byteOffset":3584,
			"target":34963
		},
		{
			"buffer":0,
			"byteLength":720,
			"byteOffset":4064,
			"target":34962
		},
		{
			"buffer":0,
			"byteLength":720,
			"byteOffset":4784,
			"target":34962
		},
		{
			"buffer":0,
			"byteLength":480,
			"byteOffset":5504,
			"target":34962
		},
		{
			"buffer":0,
			"byteLength":216,
			"byteOffset":5984,
			"target":34963
		}
	],
	"samplers":[
		{
			"magFilter":9729,
			"minFilter":9987
		}
	],
	"buffers":[
		{
			"byteLength":6200,
			"uri":"TruncatedIcosahedronB.bin"
		}
	]
}
